# xmcd
#
# Track frame offsets:
#	150
#	23147
#	38307
#	50907
#	64014
#	77749
#	91784
#	107178
#	120086
#	131861
#	143599
#	155637
#	167356
#	177922
#	190954
#	202458
#	215696
#	226337
#	238816
#	249397
#	262354
#	280008
#	296958
#	324777
#
# Disc length: 4592 seconds
#
# Revision: 0
# Processed by: cddbd v1.5.2PL0 Copyright (c) Steve Scherf et al.
# Submitted via: EasyCDDAExtractor 8.1.2.3
#
DISCID=6011ee18
DTITLE=RAY CHARLES - THE KING OF SOUL CLASSIC HITS
DYEAR=2010
DGENRE=R&B
TTITLE0=WHAT'D I SAY
TTITLE1=DROWN IN MY OWN TEARS
TTITLE2=MARY ANN
TTITLE3=I'VE GOT A WOMAN
TTITLE4=A FOOL FOR YOU
TTITLE5=COME BACK BABY
TTITLE6=(NIGHT TIME IS) THE RIGHT TIME
TTITLE7=GREENBACKS
TTITLE8=WHAT WOULD I DO WITHOUT YOU?
TTITLE9=HALLELUJAH I LOVE HER SO
TTITLE10=IT SHOULD'VE BEEN ME
TTITLE11=LONELY AVENUE
TTITLE12=BLACKJACK
TTITLE13=AINT'T THAT LOVE
TTITLE14=THIS LITTLE GIRL OF MINE
TTITLE15=DON'T YOU KNOW
TTITLE16=I'M MOVIN' ON 
TTITLE17=THAT'S ENOUGH
TTITLE18=SWANEE RIVER ROCK
TTITLE19=LET THE GOOD TIMES ROLL
TTITLE20=ROCKHOUSE
TTITLE21=DON'T LET THE SUN CATCH YOU CRYIN'
TTITLE22=DROWN IN MY OWN THEARS (LIVE)
TTITLE23=WHAT'D I SAY (LIVE)
EXTD=
EXTT0=
EXTT1=
EXTT2=
EXTT3=
EXTT4=
EXTT5=
EXTT6=
EXTT7=
EXTT8=
EXTT9=
EXTT10=
EXTT11=
EXTT12=
EXTT13=
EXTT14=
EXTT15=
EXTT16=
EXTT17=
EXTT18=
EXTT19=
EXTT20=
EXTT21=
EXTT22=
EXTT23=
PLAYORDER=
